<svg xmlns="http://www.w3.org/2000/svg" xmlns:xlink="http://www.w3.org/1999/xlink" viewBox="0 0 858.88 247.76"><defs><style>.cls-1{fill:url(#Безымянный_градиент_29);}</style><linearGradient id="Безымянный_градиент_29" x1="55.34" y1="282.48" x2="853.48" y2="-34.78" gradientUnits="userSpaceOnUse"><stop offset="0" stop-color="#c72cdb"/><stop offset="0.22" stop-color="#c82fd9"/><stop offset="0.38" stop-color="#cc39d5"/><stop offset="0.52" stop-color="#d147cd"/><stop offset="0.54" stop-color="#b741d3"/><stop offset="0.58" stop-color="#9438dc"/><stop offset="0.62" stop-color="#7531e3"/><stop offset="0.67" stop-color="#5c2ae9"/><stop offset="0.72" stop-color="#4926ed"/><stop offset="0.78" stop-color="#3b22f1"/><stop offset="0.86" stop-color="#3321f2"/><stop offset="1" stop-color="#3120f3"/></linearGradient></defs><g id="Слой_2" data-name="Слой 2"><g id="Слой_1-2" data-name="Слой 1"><path class="cls-1" d="M485.16,40.53c-43.81-5.53-55.4-6.34-81.5-5.67-39.85,1-61.18,5.67-78.93,17.21a16.69,16.69,0,0,1-6.07,2.51c-1.38.1-51.6.13-111.6.07L98,54.54l-3.4-2.28c-2.76-1.85-3.46-3-3.73-6.25-.42-5,1.78-9.22,6.53-12.47L101,31l70.07-.64c112.82-1,128.91-2.32,196.58-15.84C414,5.3,427.72,2.88,444.66,1c14.09-1.56,51.91-1.27,63.5.48,18.81,2.84,39.36,9.59,72.37,23.77,32,13.74,24,12.27,67.07,12.28,55.66,0,89,2.42,126.56,9.12,22.58,4,53.65,12.13,59.42,15.48l2.58,1.5-3.5-.48c-1.92-.26-9.58-1.6-17-3a955,955,0,0,0-154.5-15.33c-23.51-.45-36.38-.24-48.5.78-18.29,1.55-59.53,1.45-82.5-.19C522.46,44.89,502.21,42.68,485.16,40.53Zm199.59,39h-46l-.49,2.25c-.27,1.24-1,5.85-1.59,10.25s-3.12,20.83-5.59,36.5c-6.89,43.81-12.25,81.39-11.72,82.23.26.43,6.28.77,13.39.77,12.58,0,12.93-.06,13.43-2.25.28-1.24,1.85-10.8,3.5-21.25s3.28-20.69,3.64-22.75l.65-3.75h58.46l2-12.25c1.07-6.74,1.78-12.59,1.58-13s-13.17-.75-28.81-.75H658.66v-2.25c0-3,3.9-26.78,4.58-27.88.3-.48,14.65-.87,31.9-.87H726.5l.54-2.75c.29-1.51,1-6.35,1.64-10.75s1.33-8.79,1.61-9.75C730.76,79.64,728.13,79.54,684.75,79.54ZM572,79.54H557.16L551.8,93.79c-8.59,22.84-29.32,75.17-30.14,76.08-.42.45-1.3-3.64-2-9.1s-2.41-19.34-3.87-30.83L513.16,109l-16-.27-16-.28-12.47,31.28L456.17,171l-.75-6c-.41-3.3-2.34-22.42-4.29-42.5s-3.8-38-4.11-39.75l-.58-3.25H419.66v2.52c0,1.39,1.56,15.23,3.46,30.75s5.07,42.18,7,59.23,3.8,32.91,4.1,35.25l.54,4.25h14.33c10.53,0,14.47-.33,14.84-1.25,1.65-4.06,24.85-59.09,26.62-63.14,1.18-2.69,2.31-4.72,2.53-4.5.45.45,4.81,30.7,7,48.89.85,6.88,1.8,14.19,2.12,16.25l.58,3.75h13.79c9.86,0,14.06-.36,14.73-1.25a50,50,0,0,0,3.23-6.75c11.52-27.77,19.71-47.25,34.28-81.45,9.35-22,17.23-40.54,17.51-41.25C586.77,79.81,583.77,79.54,572,79.54Zm286.73-.29c-.33-.12-26.78-.09-58.8,0l-58.2.26-.58,3.24c-.32,1.78-1.15,7.29-1.85,12.24l-1.27,9,21.56.26c11.85.14,22.06.44,22.69.67.78.29.88,1.78.3,4.85-1.06,5.68-14.94,99.16-14.94,100.62,0,.75,4.35,1.1,13.48,1.1,13.17,0,13.49,0,14-2.25.28-1.24,2.77-17.32,5.53-35.75s6.26-41.37,7.77-51l2.73-17.5,22.19-.27,22.19-.27.69-4.73c.37-2.6,1.22-8.24,1.89-12.52S859.07,79.36,858.75,79.25ZM171.94,77.66c-56.53.06-103.68.33-104.78.6C57.1,80.68,51.46,90.52,56.22,97.32c3.82,5.46-1.22,5.22,111.93,5.22,103.31,0,104.64,0,108.59-2,7-3.59,10.13-12.36,6.29-17.84C279.33,77.38,282.67,77.53,171.94,77.66Zm175.19,24.82c12.84-1.78,31.49,1,44,6.5,3.17,1.4,6.11,2.33,6.54,2.07,1-.64,13-21.21,13-22.35,0-1.32-10.44-5.75-19-8.06-15.15-4.09-35.22-5.14-50-2.61-19,3.25-32.36,12.51-39.23,27.19-2.52,5.38-3.15,8.19-3.55,15.89-.45,8.7-.3,9.76,2.26,15,5.95,12.16,19.6,17.65,51,20.49,21.71,2,27.45,5.15,26,14.46-.94,6.29-5.91,11.78-12.86,14.19-4.07,1.42-8,1.78-18.19,1.69-14.89-.14-23.54-2-36.13-7.83-4.25-2-8.07-3.23-8.49-2.81s-3.71,5.86-7.32,12.08l-6.56,11.3,5.68,2.51c18.12,8,32.75,10.76,53.82,10.12,16.39-.51,23.08-1.88,33.17-6.78,16.69-8.13,26.36-25.23,25.11-44.43-1.32-20.2-14.95-28.21-53.67-31.55-21-1.82-26.11-4-26.11-11.27C326.66,109.48,333.24,104.41,347.13,102.48ZM622.7,79.54H594l-1.23,9.25c-.67,5.09-4.15,27.93-7.73,50.75-10.23,65.33-11.07,71-10.55,71.51.26.27,6.48.49,13.8.49,13,0,13.32,0,13.82-2.25.28-1.24,2.78-17.1,5.56-35.25,7.25-47.38,13.88-89.64,14.49-92.25ZM246.49,126.91c-4.12-2.19-3.11-2.18-118.33-1.44-97.95.63-91.86.17-98.38,7.58-2.9,3.31-3.27,4.33-2.82,7.73.66,4.84,2.92,7.45,7.6,8.75,2.27.63,35.77,1,90.85,1,48,0,87.25.27,87.25.59,0,1.68-15.72,20.74-17.74,21.51-1.37.52-40.11.91-90.38.91-60.11,0-89.36.35-92.32,1.09C6.76,176,1,180.69.18,184.45c-.91,4.16,1.69,9.63,5.52,11.61,2.91,1.51,11,1.65,89.08,1.55,47.23-.06,85.88.13,85.88.44s-3.6,5.33-8,11.18C160,226,156.46,235.38,160.06,242.35c3.11,6,8.66,6.8,15.83,2.26,13.88-8.8,71.53-88.57,75.74-104.78C253.07,134.27,251.12,129.36,246.49,126.91ZM395.55,244.76H398v1.83a.81.81,0,0,1-.91.93H379.63v-1.83a.83.83,0,0,1,.94-.93h1.95l1.05-15.61a1.38,1.38,0,0,1,.24-.71.86.86,0,0,1,.64-.2h9.17a.82.82,0,0,1,.64.21,1.08,1.08,0,0,1,.21.7Zm-2.78,0-.09-.81c0-.36-.07-.63-.09-.81L391.77,231H386.3l-.84,12.14q0,.35-.21,1.62Zm24.3-7.48a20,20,0,0,1,.11,2.22v8h-1.62a.84.84,0,0,1-.64-.2,1.55,1.55,0,0,1-.28-.73l-.21-1.08-.54,1.08a1.63,1.63,0,0,1-1.07.93,12.18,12.18,0,0,1-4.61,0,3.32,3.32,0,0,1-1.43-.71,2.93,2.93,0,0,1-.85-1.42,8.35,8.35,0,0,1-.26-2.26v-.7a3.82,3.82,0,0,1,.87-2.85,4,4,0,0,1,2.84-.83c1.49,0,3.12.08,4.89.25a8.66,8.66,0,0,0-.13-1.74,1.65,1.65,0,0,0-.55-1,2,2,0,0,0-1-.43,11.35,11.35,0,0,0-1.65-.09h-3.45a.8.8,0,0,1-.92-.91v-1.62H411a18.69,18.69,0,0,1,2.15.11,6.91,6.91,0,0,1,1.61.38,3,3,0,0,1,1.91,1.86A5.87,5.87,0,0,1,417.07,237.28Zm-2.64,3.82H410.3a2.6,2.6,0,0,0-1.67.37,2.4,2.4,0,0,0-.41,1.7,6.55,6.55,0,0,0,.08,1.14,1.31,1.31,0,0,0,.35.68,1.34,1.34,0,0,0,.76.38,7.71,7.71,0,0,0,1.34.09,4.67,4.67,0,0,0,2.87-.66,2.54,2.54,0,0,0,.81-2.09Zm22.64-7.81h-7.8a.89.89,0,0,0-.6.2,1.09,1.09,0,0,0-.29.74L427.28,245H426a.82.82,0,0,0-.91.93v1.62h1.4a6.94,6.94,0,0,0,1.62-.17,3.42,3.42,0,0,0,1.08-.43,2,2,0,0,0,.68-.69,3.66,3.66,0,0,0,.38-.87,6.45,6.45,0,0,0,.18-1.06l.85-8.48H435v10.77a.82.82,0,0,0,.92.93H438V234.2A.8.8,0,0,0,437.07,233.29Zm20.1,2.88a10.63,10.63,0,0,1,.33,2.87v1.37a1.06,1.06,0,0,1-.2.71.92.92,0,0,1-.68.21h-7.57c0,.46,0,.85.05,1.16a4.63,4.63,0,0,0,.16.87,3.28,3.28,0,0,0,.23.64,1.26,1.26,0,0,0,.39.45,2.4,2.4,0,0,0,.54.29,4,4,0,0,0,.77.15c.33,0,.65.06,1,.07h4a.83.83,0,0,1,.92.95v1.6h-4.14a12.94,12.94,0,0,1-2.18-.16,8.09,8.09,0,0,1-1.66-.45,4.09,4.09,0,0,1-1.2-.76,4.59,4.59,0,0,1-.81-1,4.92,4.92,0,0,1-.5-1.33,9.1,9.1,0,0,1-.25-1.55c0-.52-.07-1.13-.07-1.83a13.1,13.1,0,0,1,.58-4.37,4.09,4.09,0,0,1,1.81-2.29,6.92,6.92,0,0,1,3.33-.68,8.92,8.92,0,0,1,2.43.28,3.92,3.92,0,0,1,1.71,1A4,4,0,0,1,457.17,236.17Zm-2.42,2.41a10.87,10.87,0,0,0-.06-1.3,3.45,3.45,0,0,0-.19-.84,1,1,0,0,0-.48-.54,3.08,3.08,0,0,0-.79-.23,6.92,6.92,0,0,0-1.24-.08q-.66,0-1.05,0a3.13,3.13,0,0,0-.75.16,1.3,1.3,0,0,0-.54.35,2,2,0,0,0-.33.62,3.55,3.55,0,0,0-.2.93c0,.35-.05.81-.07,1.36h5.7Zm16.63,1.52,4.46-4.08a1.47,1.47,0,0,0,.39-1.13v-1.6h-1.61a1.17,1.17,0,0,0-.47.08,1,1,0,0,0-.4.32L468.94,239h-.1v-5.75h-2.08a.82.82,0,0,0-.94.91v13.32h2.08a.83.83,0,0,0,.94-.93V241.1h.1l4.81,5.88a1.44,1.44,0,0,0,.52.45,1.73,1.73,0,0,0,.62.09h1.59V245.9a1.17,1.17,0,0,0-.3-.86Zm24.6-2.31c.07.72.1,1.59.1,2.62s0,1.9-.1,2.61a8.84,8.84,0,0,1-.37,1.92,4.22,4.22,0,0,1-.7,1.36,3,3,0,0,1-1.1.85,5.42,5.42,0,0,1-1.57.45,14.45,14.45,0,0,1-2.13.13,14.27,14.27,0,0,1-2.13-.13,5.24,5.24,0,0,1-1.57-.45,3.1,3.1,0,0,1-1.11-.85,4.42,4.42,0,0,1-.69-1.36,9.46,9.46,0,0,1-.38-1.92q-.09-1.07-.09-2.61c0-1,0-1.9.09-2.62a9.29,9.29,0,0,1,.38-1.93,4.61,4.61,0,0,1,.69-1.37,3.2,3.2,0,0,1,1.11-.84,5.55,5.55,0,0,1,1.57-.46,15.94,15.94,0,0,1,2.13-.12,16.15,16.15,0,0,1,2.13.12,5.75,5.75,0,0,1,1.57.46,3.06,3.06,0,0,1,1.1.84,4.39,4.39,0,0,1,.7,1.37A8.7,8.7,0,0,1,496,237.79Zm-2.66,2.62c0-.81,0-1.44,0-1.9a7.46,7.46,0,0,0-.16-1.29,2.63,2.63,0,0,0-.31-.88,1.49,1.49,0,0,0-.58-.47,2.17,2.17,0,0,0-.87-.24c-.31,0-.74,0-1.27,0s-1,0-1.29,0a2.17,2.17,0,0,0-.87.24,1.49,1.49,0,0,0-.58.47,2.45,2.45,0,0,0-.3.88,7.71,7.71,0,0,0-.15,1.29c0,.45,0,1.08,0,1.9s0,1.44,0,1.88a7.84,7.84,0,0,0,.15,1.29,2.52,2.52,0,0,0,.3.88,1.49,1.49,0,0,0,.58.47,2.18,2.18,0,0,0,.88.25c.32,0,.74,0,1.28,0s.73,0,1,0a3.09,3.09,0,0,0,.75-.12,2.58,2.58,0,0,0,.58-.23,1.07,1.07,0,0,0,.39-.4,2,2,0,0,0,.27-.6,5,5,0,0,0,.15-.85c0-.37.06-.75.07-1.12S493.32,241,493.32,240.41Zm34.22-7.12h-1.61l-6.43,8.94v-8a.8.8,0,0,0-.89-.91h-2.08v13.3a.82.82,0,0,0,.92.93h1.61l6.41-8.94v8a.82.82,0,0,0,.93.93h2.06V234.2A.81.81,0,0,0,527.54,233.29ZM549.59,245h1.65v1.62a1,1,0,0,1-.21.71.91.91,0,0,1-.69.22H536.45V245.9a.81.81,0,0,1,.91-.93h1.22l1.1-10.87a.8.8,0,0,1,.87-.81h7.05a.8.8,0,0,1,.86.81Zm-2.78,0a3.23,3.23,0,0,1,0-.42l-.93-8.73H542.3l-.86,8.73a1.15,1.15,0,0,1-.05.2.6.6,0,0,0,0,.22Zm11.77-10.77v1.62h3.2v11.7h2.08a.82.82,0,0,0,.93-.93V235.82h2.5a.83.83,0,0,0,1-.93v-1.6h-8.73A.82.82,0,0,0,558.58,234.2Zm28.65-.91h-1.61l-6.43,8.94v-8a.8.8,0,0,0-.88-.91h-2.09v13.3a.82.82,0,0,0,.93.93h1.6l6.41-8.94v8a.83.83,0,0,0,.94.93h2V234.2A.81.81,0,0,0,587.23,233.29Zm31.91,0h-2.09v5.5H612V234.2a.82.82,0,0,0-.93-.91h-2.09v13.3a.83.83,0,0,0,1,.93H612v-6.19h5.1v5.26a.83.83,0,0,0,1,.93h2.06V234.2A.81.81,0,0,0,619.14,233.29Zm20.12,2.88a10.63,10.63,0,0,1,.33,2.87v1.37a1,1,0,0,1-.2.71.92.92,0,0,1-.68.21h-7.57c0,.46,0,.85.06,1.16a4,4,0,0,0,.15.87,3.28,3.28,0,0,0,.23.64,1.26,1.26,0,0,0,.39.45,2.4,2.4,0,0,0,.54.29,4,4,0,0,0,.77.15c.33,0,.66.06,1,.07h4a.83.83,0,0,1,.92.95v1.6H635a12.94,12.94,0,0,1-2.18-.16,7.82,7.82,0,0,1-1.65-.45,3.85,3.85,0,0,1-1.2-.76,4.37,4.37,0,0,1-.82-1,4.92,4.92,0,0,1-.5-1.33,9.1,9.1,0,0,1-.25-1.55c0-.52-.07-1.13-.07-1.83a13.1,13.1,0,0,1,.58-4.37,4.09,4.09,0,0,1,1.81-2.29,6.94,6.94,0,0,1,3.33-.68,9,9,0,0,1,2.44.28,3.82,3.82,0,0,1,2.74,2.82Zm-2.42,2.41c0-.55,0-1-.05-1.3a4,4,0,0,0-.2-.84,1,1,0,0,0-.48-.54,3.08,3.08,0,0,0-.79-.23,6.92,6.92,0,0,0-1.24-.08c-.44,0-.79,0-1,0a3.32,3.32,0,0,0-.76.16,1.3,1.3,0,0,0-.54.35,2,2,0,0,0-.33.62,3.56,3.56,0,0,0-.19.93c0,.35-.06.81-.08,1.36h5.7Zm33.42-5.29h-2.08v5.5h-5.1V234.2a.82.82,0,0,0-.94-.91h-2.08v13.3a.83.83,0,0,0,1,.93h2.07v-6.19h5.1v5.26a.83.83,0,0,0,1,.93h2V234.2A.81.81,0,0,0,670.26,233.29Zm20.67,4a17.65,17.65,0,0,1,.12,2.22v8h-1.62a.84.84,0,0,1-.64-.2,1.54,1.54,0,0,1-.29-.73l-.21-1.08-.54,1.08a1.63,1.63,0,0,1-1.07.93,9.19,9.19,0,0,1-2.51.24,9.33,9.33,0,0,1-2.1-.2,3.29,3.29,0,0,1-1.42-.71,2.86,2.86,0,0,1-.85-1.42,8,8,0,0,1-.26-2.26v-.7a3.82,3.82,0,0,1,.87-2.85,4,4,0,0,1,2.83-.83c1.5,0,3.13.08,4.89.25a8.66,8.66,0,0,0-.13-1.74,1.69,1.69,0,0,0-.54-1,2,2,0,0,0-1-.43,11.1,11.1,0,0,0-1.64-.09h-3.46a.81.81,0,0,1-.92-.91v-1.62h4.38a18.5,18.5,0,0,1,2.14.11,7.12,7.12,0,0,1,1.62.38,3.36,3.36,0,0,1,1.16.71,3.53,3.53,0,0,1,.75,1.15A6.24,6.24,0,0,1,690.93,237.28Zm-2.64,3.82h-4.12a2.62,2.62,0,0,0-1.68.37,2.4,2.4,0,0,0-.41,1.7,6.55,6.55,0,0,0,.08,1.14,1.31,1.31,0,0,0,.35.68,1.34,1.34,0,0,0,.76.38,7.71,7.71,0,0,0,1.34.09,4.67,4.67,0,0,0,2.87-.66,2.54,2.54,0,0,0,.81-2.09ZM712.12,245h1.65v1.62a1,1,0,0,1-.21.71.91.91,0,0,1-.69.22H699V245.9a.81.81,0,0,1,.91-.93h1.22l1.1-10.87a.8.8,0,0,1,.87-.81h7a.79.79,0,0,1,.86.81Zm-2.78,0c0-.24-.05-.38-.05-.42l-.92-8.73h-3.54l-.85,8.73a1.36,1.36,0,0,1-.06.2.93.93,0,0,0,0,.22Zm23.93-7.18c.07.72.1,1.59.1,2.62s0,1.9-.1,2.61a8.82,8.82,0,0,1-.38,1.92,4,4,0,0,1-.69,1.36,2.94,2.94,0,0,1-1.11.85,5.26,5.26,0,0,1-1.56.45,14.45,14.45,0,0,1-2.13.13,14.27,14.27,0,0,1-2.13-.13,5.24,5.24,0,0,1-1.57-.45,3.1,3.1,0,0,1-1.11-.85,4,4,0,0,1-.69-1.36,8.82,8.82,0,0,1-.38-1.92c-.06-.71-.1-1.58-.1-2.61s0-1.9.1-2.62a8.68,8.68,0,0,1,.38-1.93,4.18,4.18,0,0,1,.69-1.37,3.2,3.2,0,0,1,1.11-.84,5.55,5.55,0,0,1,1.57-.46,15.94,15.94,0,0,1,2.13-.12,16.15,16.15,0,0,1,2.13.12,5.58,5.58,0,0,1,1.56.46,3,3,0,0,1,1.11.84,4.18,4.18,0,0,1,.69,1.37A8.68,8.68,0,0,1,733.27,237.79Zm-2.66,2.62c0-.81,0-1.44,0-1.9a7.46,7.46,0,0,0-.16-1.29,2.63,2.63,0,0,0-.31-.88,1.49,1.49,0,0,0-.58-.47,2.17,2.17,0,0,0-.87-.24c-.31,0-.74,0-1.27,0s-1,0-1.29,0a2.17,2.17,0,0,0-.87.24,1.49,1.49,0,0,0-.58.47,2.45,2.45,0,0,0-.3.88,6.79,6.79,0,0,0-.15,1.29c0,.45,0,1.08,0,1.9s0,1.44,0,1.88a6.89,6.89,0,0,0,.15,1.29,2.52,2.52,0,0,0,.3.88,1.49,1.49,0,0,0,.58.47,2.18,2.18,0,0,0,.88.25c.31,0,.74,0,1.28,0s.73,0,1,0a3.09,3.09,0,0,0,.75-.12,2.58,2.58,0,0,0,.58-.23,1.07,1.07,0,0,0,.39-.4,2,2,0,0,0,.27-.6,5,5,0,0,0,.15-.85c0-.37.06-.75.07-1.12S730.61,241,730.61,240.41Z"/></g></g></svg>