<svg xmlns="http://www.w3.org/2000/svg" xmlns:xlink="http://www.w3.org/1999/xlink" viewBox="0 0 298.7 298.7"><defs><style>.cls-1{fill:url(#Безымянный_градиент_24);}.cls-2{fill:#fff;}.cls-3{fill:#0a48ff;}</style><linearGradient id="Безымянный_градиент_24" x2="298.7" y2="298.7" gradientUnits="userSpaceOnUse"><stop offset="0" stop-color="#df32d5"/><stop offset="0.05" stop-color="#dd37d3"/><stop offset="0.2" stop-color="#d744cd"/><stop offset="0.34" stop-color="#d548cb"/><stop offset="0.45" stop-color="#c043d0"/><stop offset="0.67" stop-color="#8b36dd"/><stop offset="0.99" stop-color="#3521f2"/><stop offset="1" stop-color="#3120f3"/></linearGradient></defs><g id="Слой_2" data-name="Слой 2"><g id="Слой_1-2" data-name="Слой 1"><rect class="cls-1" width="298.7" height="298.7"/><path class="cls-2" d="M167.23,79.92c-56.53.06-103.68.33-104.78.6-10.06,2.42-15.7,12.26-10.94,19.06,3.82,5.46-1.22,5.22,111.93,5.22,103.31,0,104.64,0,108.59-2,7-3.59,10.13-12.36,6.29-17.84C274.62,79.64,278,79.79,167.23,79.92Z"/><path class="cls-3" d="M219,112H196.16a33.74,33.74,0,0,0,1-7.52q0-15-11.81-22.54-10.29-6.51-25.87-6.51-15.84,0-27.39,5.51Q115.26,89,111.5,107a23.35,23.35,0,0,0-.76,5.76q0,7.52,5.26,11.77,3.77,3.27,12,5.26l48.85,11.78q15,3.75,23.42,12.4t8.39,23.67c0,1.84-.08,3.75-.25,5.76a44.82,44.82,0,0,1-1,6.26q-6,28.81-32.81,43.08-21,11.28-49.1,11.28-22.3,0-35.32-5.76a40.73,40.73,0,0,1-15.28-11.53,38.23,38.23,0,0,1-8.39-13.4,46,46,0,0,1-2.38-15.15,81.49,81.49,0,0,1,2-17H89a55,55,0,0,0-1.25,10.52q0,16.78,13.27,24.8,11,6.77,28.81,6.77,24.54,0,38.57-9a33.35,33.35,0,0,0,14.78-21.33,34,34,0,0,0,1-8.28q0-9.3-7-14.18T151.6,161l-34.85-8.4q-12.27-3-19-8.26Q86.19,135.58,86.19,120v-3.88a31.56,31.56,0,0,1,1-5.89A67.3,67.3,0,0,1,110,72q20.3-17.28,51.1-17.28,34.32,0,48.59,14.53,10.53,10.51,10.52,29.55A67.21,67.21,0,0,1,219,112Z"/><path class="cls-2" d="M265.21,116.67c-4.12-2.19-3.11-2.18-118.33-1.44-97.95.63-91.86.17-98.38,7.58-2.9,3.31-3.27,4.33-2.82,7.73.66,4.84,2.92,7.45,7.6,8.75,2.27.63,35.77,1,90.85,1,48,0,87.25.27,87.25.59,0,1.68-15.72,20.74-17.74,21.51-1.37.52-40.11.91-90.38.91-60.11,0-89.36.35-92.32,1.09-5.46,1.38-11.21,6.06-12,9.82-.91,4.16,1.69,9.63,5.52,11.61,2.91,1.51,11,1.65,89.08,1.55,47.23-.06,85.88.13,85.88.44s-3.6,5.33-8,11.18c-12.62,16.77-16.19,26.15-12.59,33.12,3.11,6,8.66,6.8,15.83,2.26,13.88-8.8,71.53-88.57,75.74-104.78C271.79,124,269.84,119.12,265.21,116.67Z"/></g></g></svg>