<svg width="15.000000" height="13.000000" viewBox="0 0 15 13" fill="none" xmlns="http://www.w3.org/2000/svg" xmlns:xlink="http://www.w3.org/1999/xlink">
	<desc>
			Created with Pixso.
	</desc>
	<defs/>
	<path id="Path 1888" d="M9.48 6.64C9.48 7.1 9.35 7.55 9.09 7.93C8.84 8.31 8.47 8.61 8.05 8.79C7.62 8.97 7.15 9.01 6.7 8.92C6.25 8.83 5.83 8.61 5.51 8.28C5.18 7.96 4.96 7.54 4.87 7.09C4.78 6.64 4.83 6.17 5 5.75C5.18 5.32 5.48 4.96 5.86 4.7C6.24 4.44 6.69 4.31 7.16 4.31C7.77 4.31 8.37 4.55 8.8 4.99C9.24 5.43 9.48 6.02 9.48 6.64Z" fill="#FFFFFF" fill-opacity="1.000000" fill-rule="nonzero"/>
	<path id="Path 1889" d="M4.98 -0.63L3.65 0.82L1.35 0.82C0.97 0.82 0.6 0.97 0.32 1.25C0.05 1.52 -0.1 1.89 -0.1 2.27L-0.1 10.99C-0.1 11.37 0.05 11.74 0.32 12.01C0.6 12.29 0.97 12.44 1.35 12.44L12.97 12.44C13.36 12.44 13.73 12.29 14 12.01C14.27 11.74 14.42 11.37 14.42 10.99L14.42 2.27C14.42 1.89 14.27 1.52 14 1.25C13.73 0.97 13.36 0.82 12.97 0.82L10.67 0.82L9.34 -0.63L4.98 -0.63ZM7.16 10.26C6.44 10.26 5.74 10.05 5.14 9.65C4.55 9.25 4.08 8.69 3.81 8.02C3.53 7.36 3.46 6.63 3.6 5.92C3.74 5.22 4.08 4.57 4.59 4.06C5.1 3.56 5.75 3.21 6.45 3.07C7.16 2.93 7.89 3 8.55 3.28C9.21 3.55 9.78 4.02 10.18 4.61C10.58 5.21 10.79 5.91 10.79 6.63C10.79 7.6 10.41 8.52 9.73 9.2C9.05 9.88 8.12 10.26 7.16 10.26Z" fill="#FFFFFF" fill-opacity="1.000000" fill-rule="nonzero"/>
</svg>
