<svg width="27.079102" height="16.003021" viewBox="0 0 27.0791 16.003" fill="none" xmlns="http://www.w3.org/2000/svg" xmlns:xlink="http://www.w3.org/1999/xlink">
	<desc>
			Created with Pixso.
	</desc>
	<defs/>
	<path id="Path 28495" d="M25.8462 16.003L1.23096 16.003C0.904785 16.0022 0.592285 15.8723 0.361328 15.6416C0.130859 15.4109 0.000976562 15.0982 0 14.772L0 1.23099C0.000976562 0.904755 0.130859 0.592102 0.361328 0.36142C0.592285 0.130737 0.904785 0.000793457 1.23096 0L25.8462 0C26.1724 0.000793457 26.4849 0.130737 26.7153 0.36142C26.9463 0.592102 27.0762 0.904755 27.0771 1.23099L27.0771 14.772C27.0762 15.0982 26.9463 15.4109 26.7153 15.6416C26.4849 15.8723 26.1724 16.0022 25.8462 16.003Z" fill="#0E9347" fill-opacity="1.000000" fill-rule="nonzero"/>
	<path id="Path 28496" d="M22.77 11.08C22.0928 11.0715 21.4243 11.2299 20.8232 11.5413C20.2222 11.8526 19.7075 12.3073 19.3237 12.865C18.6807 12.5163 17.9634 12.3263 17.2319 12.311C16.1987 12.3148 15.2017 12.6898 14.4224 13.3676C13.6431 14.0453 13.1333 14.9807 12.9858 16.003L25.8477 16.003C26.1436 16.0021 26.4292 15.8966 26.6548 15.7051C26.8799 15.5137 27.0303 15.2487 27.0786 14.957C26.9556 13.8971 26.4497 12.9185 25.6567 12.2048C24.8633 11.491 23.8369 11.0912 22.77 11.08Z" fill="#0D8944" fill-opacity="1.000000" fill-rule="nonzero"/>
	<path id="Path 28497" d="M23.3848 14.772L3.69287 14.772C3.69092 14.1196 3.43115 13.4945 2.96973 13.0331C2.5083 12.5718 1.8833 12.3119 1.23096 12.31L1.23096 3.69601C1.8833 3.69415 2.5083 3.43417 2.96973 2.97287C3.43115 2.51154 3.69092 1.88641 3.69287 1.23401L23.3848 1.23401C23.3867 1.88641 23.647 2.51154 24.1079 2.97287C24.5693 3.43417 25.1943 3.69415 25.8472 3.69601L25.8472 12.311C25.1948 12.3129 24.5698 12.5727 24.1084 13.0338C23.647 13.4949 23.3872 14.1198 23.3848 14.772Z" fill="#3BB54A" fill-opacity="1.000000" fill-rule="nonzero"/>
	<path id="Path 28498" d="M22.769 11.08C22.0923 11.0715 21.4238 11.2299 20.8228 11.5413C20.2217 11.8526 19.7065 12.3073 19.3232 12.865C18.6797 12.5163 17.9624 12.3263 17.231 12.311C16.416 12.3041 15.6167 12.5328 14.9292 12.9696C14.2412 13.4064 13.6943 14.0327 13.354 14.773L23.3848 14.773C23.3833 14.1302 23.6338 13.5123 24.0825 13.052C24.5312 12.5917 25.1426 12.3257 25.7852 12.311C24.9717 11.5341 23.894 11.0943 22.769 11.08Z" fill="#0E9347" fill-opacity="1.000000" fill-rule="nonzero"/>
	<path id="Ellipse 802" d="M18.4614 8.00302C18.4614 11.0616 16.2573 13.541 13.5381 13.541C10.8193 13.541 8.61523 11.0616 8.61523 8.00302C8.61523 4.94449 10.8193 2.46503 13.5381 2.46503C16.2573 2.46503 18.4614 4.94449 18.4614 8.00302Z" fill="#0E9347" fill-opacity="1.000000" fill-rule="evenodd"/>
	<path id="Ellipse 803" d="M7.38477 8.004C7.38477 8.68387 6.8335 9.23502 6.15381 9.23502C5.47412 9.23502 4.92285 8.68387 4.92285 8.004C4.92285 7.32416 5.47412 6.77301 6.15381 6.77301C6.8335 6.77301 7.38477 7.32416 7.38477 8.004Z" fill="#0E9347" fill-opacity="1.000000" fill-rule="evenodd"/>
	<path id="Ellipse 804" d="M22.1538 8.004C22.1538 8.68387 21.6025 9.23502 20.9229 9.23502C20.2432 9.23502 19.6919 8.68387 19.6919 8.004C19.6919 7.32416 20.2432 6.77301 20.9229 6.77301C21.6025 6.77301 22.1538 7.32416 22.1538 8.004Z" fill="#0E9347" fill-opacity="1.000000" fill-rule="evenodd"/>
	<path id="Path 28499" d="M14.1543 7.388L12.9224 7.388C12.7588 7.388 12.6025 7.32315 12.4868 7.2077C12.3716 7.09229 12.3066 6.93573 12.3066 6.77249C12.3066 6.60925 12.3716 6.4527 12.4868 6.33728C12.6025 6.22183 12.7588 6.15698 12.9224 6.15698L14.7681 6.15698C14.9316 6.15698 15.0879 6.09213 15.2036 5.97672C15.3188 5.86127 15.3838 5.70474 15.3838 5.5415C15.3838 5.37823 15.3188 5.22168 15.2036 5.10626C15.0879 4.99084 14.9316 4.92599 14.7681 4.92599L14.1533 4.92599C14.1533 4.76276 14.0884 4.6062 13.9727 4.49075C13.8574 4.37534 13.7007 4.31049 13.5376 4.31049C13.3745 4.31049 13.2178 4.37534 13.1025 4.49075C12.9868 4.6062 12.9224 4.76276 12.9224 4.92599C12.6797 4.92599 12.4399 4.97372 12.2158 5.0665C11.9917 5.15927 11.7881 5.29526 11.6167 5.46667C11.4453 5.63809 11.3096 5.84158 11.2168 6.06555C11.124 6.28952 11.0762 6.52957 11.0762 6.77197C11.0762 7.0144 11.124 7.25446 11.2168 7.47842C11.3096 7.70239 11.4453 7.90588 11.6167 8.0773C11.7881 8.24872 11.9917 8.3847 12.2158 8.47748C12.4399 8.57025 12.6797 8.61798 12.9224 8.61798L14.1533 8.61798C14.3164 8.61798 14.4731 8.68283 14.5884 8.79828C14.7036 8.9137 14.7686 9.07025 14.7686 9.23349C14.7686 9.39673 14.7036 9.55328 14.5884 9.6687C14.4731 9.78415 14.3164 9.849 14.1533 9.849L12.3071 9.849C12.144 9.849 11.9873 9.91382 11.8721 10.0293C11.7563 10.1447 11.6919 10.3012 11.6919 10.4645C11.6919 10.6277 11.7563 10.7843 11.8721 10.8997C11.9873 11.0151 12.144 11.08 12.3071 11.08L12.9224 11.08C12.9224 11.2432 12.9868 11.3998 13.1025 11.5152C13.2178 11.6306 13.3745 11.6955 13.5376 11.6955C13.7007 11.6955 13.8574 11.6306 13.9727 11.5152C14.0884 11.3998 14.1533 11.2432 14.1533 11.08C14.6426 11.08 15.1123 10.8855 15.4585 10.5393C15.8047 10.1931 15.999 9.72357 15.999 9.23398C15.999 8.74438 15.8047 8.27487 15.4585 7.92865C15.1123 7.58246 14.6426 7.388 14.1533 7.388L14.1543 7.388Z" fill="#89C763" fill-opacity="1.000000" fill-rule="nonzero"/>
</svg>
