<?xml version="1.0" encoding="utf-8"?>
<!-- Generator: Adobe Illustrator 24.3.0, SVG Export Plug-In . SVG Version: 6.00 Build 0)  -->
<svg version="1.1" id="Слой_1" xmlns="http://www.w3.org/2000/svg" xmlns:xlink="http://www.w3.org/1999/xlink" x="0px" y="0px"
	 viewBox="0 0 800 800" style="enable-background:new 0 0 800 800;" xml:space="preserve">
<style type="text/css">
	.st0{fill:url(#SVGID_1_);}
	.st1{fill-rule:evenodd;clip-rule:evenodd;fill:#FFFFFF;}
</style>
<linearGradient id="SVGID_1_" gradientUnits="userSpaceOnUse" x1="-17.7894" y1="102.0004" x2="823.0994" y2="701.0687">
	<stop  offset="0" style="stop-color:#3120F3"/>
	<stop  offset="0.676" style="stop-color:#D830D6"/>
</linearGradient>
<path class="st0" d="M0,400v400h55h55l0-13.2c0-7.3,0.5-18.4,1.1-24.8c0.6-6.3,2.1-17,3.4-23.8s3.6-16.2,5-21
	c1.4-4.8,4-12.5,5.7-17.2s5.2-13.1,7.9-18.8c2.6-5.6,7.9-15.5,11.8-22c3.8-6.5,10.3-16.2,14.4-21.8c4.1-5.5,11.3-14.3,15.9-19.5
	c4.6-5.2,11.8-12.6,15.9-16.4c4.1-3.8,11.9-10.5,17.4-14.9s14.6-11.1,20.3-14.8c5.7-3.7,14.8-9.3,20.3-12.4
	c5.8-3.3,10.5-5.3,11.2-4.8c0.7,0.4,3.5,2.6,6.2,5c2.8,2.3,9.4,7.1,14.7,10.7c5.3,3.6,14.2,8.8,19.7,11.6c5.5,2.8,14.2,6.7,19.3,8.7
	c5.1,2,12,4.4,15.3,5.4c3.3,1,9.6,2.7,14,3.8c4.4,1.1,13,2.8,19,3.8c8.4,1.4,16.5,1.8,34.5,1.8c18,0,26.1-0.4,34.5-1.8
	c6-1,15.3-2.9,20.6-4.2c5.3-1.3,14.3-4,20-6c5.7-2,16.3-6.4,23.4-9.9c7.1-3.5,17.5-9.4,22.9-13c5.5-3.7,12.1-8.4,14.6-10.6
	c2.6-2.2,5-3.9,5.3-3.9c0.3,0,5,2.5,10.4,5.6c5.4,3.1,13.7,8.3,18.4,11.4c4.7,3.2,13.1,9.4,18.5,13.7c5.4,4.3,13.2,11,17.3,14.8
	c4.1,3.8,11.2,11.2,15.9,16.4c4.6,5.2,11.8,14,15.9,19.5c4.1,5.5,10.6,15.3,14.4,21.8c3.8,6.5,9.1,16.4,11.8,22
	c2.6,5.6,6.4,14.8,8.4,20.3c2,5.5,4.7,14,6.1,19c1.4,5,3.4,14,4.5,20s2.5,16,3,22s1,17,1,24.3l0,13.3l55.2-0.3l55.2-0.3l0.3-399.8
	L801,0H400.5H0V400 M0.5,400.5c0,220,0.1,309.9,0.3,199.7c0.1-110.2,0.1-290.2,0-400C0.6,90.4,0.5,180.5,0.5,400.5 M378,213.5
	c-5.2,0.7-13.2,2.2-17.7,3.4s-12.1,3.5-17,5.2c-4.9,1.7-12,4.7-15.8,6.6c-3.9,1.9-9.7,5.1-13,7.1c-3.3,2-10,6.6-15,10.3
	c-5,3.7-13.3,11.2-18.6,16.6c-5.3,5.4-12,13.2-15.1,17.4c-3,4.1-7.1,10.2-9.1,13.5c-2,3.3-5.4,9.6-7.6,14c-2.2,4.4-5.4,12-7.2,17
	s-4.1,12.8-5.2,17.4c-1.1,4.6-2.6,13.1-3.4,19c-0.8,5.8-1.4,15.6-1.4,21.6s0.6,15.8,1.4,21.6c0.8,5.9,2.3,14.4,3.4,19
	c1.1,4.6,3.4,12.4,5.2,17.4s5,12.6,7.2,17c2.2,4.4,5.6,10.7,7.6,14c2,3.3,6.1,9.4,9.1,13.5c3,4.1,9.8,11.9,15.1,17.4
	c5.3,5.4,13.6,12.9,18.6,16.6c5,3.7,11.7,8.3,15,10.3c3.3,2,9.1,5.1,13,7s10.1,4.6,14,6.1c3.9,1.4,11.3,3.8,16.5,5.2
	c5.2,1.4,14.6,3.2,20.8,4c6.2,0.8,15.8,1.5,21.2,1.5s15-0.7,21.2-1.5c6.2-0.8,15.6-2.6,20.8-4c5.2-1.4,12.6-3.7,16.5-5.2
	c3.9-1.4,10.1-4.2,14-6.1s9.7-5.1,13-7c3.3-2,9.4-6,13.5-9s11.5-9.3,16.3-14.1c4.9-4.7,11.2-11.5,14.1-15.1c2.9-3.6,7.5-9.9,10.3-14
	c2.8-4.1,7.3-12,10-17.5c2.8-5.5,6.4-14,8.2-19s4.1-12.8,5.2-17.4c1.1-4.6,2.6-13.1,3.4-19c0.8-5.8,1.4-15.6,1.4-21.6
	s-0.6-15.8-1.4-21.6c-0.8-5.9-2.3-14.4-3.4-19c-1.1-4.6-3.4-12.4-5.2-17.4c-1.8-5-5-12.6-7.2-17c-2.2-4.4-5.6-10.7-7.6-14
	s-6.1-9.4-9.1-13.5c-3-4.1-9.8-11.9-15.1-17.4c-5.3-5.4-13.6-12.9-18.6-16.6c-5-3.7-11.7-8.3-15-10.3c-3.3-2-9.1-5.1-13-7.1
	c-3.9-1.9-11-4.9-15.8-6.6c-4.9-1.7-12.5-4-17-5.2c-4.5-1.1-12.9-2.7-18.7-3.5c-5.8-0.8-15.7-1.4-22-1.3
	C392.7,212.2,383.2,212.8,378,213.5"/>
<path class="st1" d="M378,213.5c-5.2,0.7-13.2,2.2-17.7,3.4s-12.1,3.5-17,5.2c-4.9,1.7-12,4.7-15.8,6.6c-3.9,1.9-9.7,5.1-13,7.1
	c-3.3,2-10,6.6-15,10.3c-5,3.7-13.3,11.2-18.6,16.6c-5.3,5.4-12,13.2-15.1,17.4c-3,4.1-7.1,10.2-9.1,13.5c-2,3.3-5.4,9.6-7.6,14
	c-2.2,4.4-5.4,12-7.2,17s-4.1,12.8-5.2,17.4c-1.1,4.6-2.6,13.1-3.4,19c-0.8,5.8-1.4,15.6-1.4,21.6s0.6,15.8,1.4,21.6
	c0.8,5.9,2.3,14.4,3.4,19c1.1,4.6,3.4,12.4,5.2,17.4s5,12.6,7.2,17c2.2,4.4,5.6,10.7,7.6,14c2,3.3,6.1,9.4,9.1,13.5
	c3,4.1,9.8,11.9,15.1,17.4c5.3,5.4,13.6,12.9,18.6,16.6c5,3.7,11.7,8.3,15,10.3c3.3,2,9.1,5.1,13,7s10.1,4.6,14,6.1
	c3.9,1.4,11.3,3.8,16.5,5.2c5.2,1.4,14.6,3.2,20.8,4c6.2,0.8,15.8,1.5,21.2,1.5s15-0.7,21.2-1.5c6.2-0.8,15.6-2.6,20.8-4
	c5.2-1.4,12.6-3.7,16.5-5.2c3.9-1.4,10.1-4.2,14-6.1s9.7-5.1,13-7c3.3-2,9.4-6,13.5-9s11.5-9.3,16.3-14.1
	c4.9-4.7,11.2-11.5,14.1-15.1c2.9-3.6,7.5-9.9,10.3-14c2.8-4.1,7.3-12,10-17.5c2.8-5.5,6.4-14,8.2-19s4.1-12.8,5.2-17.4
	c1.1-4.6,2.6-13.1,3.4-19c0.8-5.8,1.4-15.6,1.4-21.6s-0.6-15.8-1.4-21.6c-0.8-5.9-2.3-14.4-3.4-19c-1.1-4.6-3.4-12.4-5.2-17.4
	c-1.8-5-5-12.6-7.2-17c-2.2-4.4-5.6-10.7-7.6-14s-6.1-9.4-9.1-13.5c-3-4.1-9.8-11.9-15.1-17.4c-5.3-5.4-13.6-12.9-18.6-16.6
	c-5-3.7-11.7-8.3-15-10.3c-3.3-2-9.1-5.1-13-7.1c-3.9-1.9-11-4.9-15.8-6.6c-4.9-1.7-12.5-4-17-5.2c-4.5-1.1-12.9-2.7-18.7-3.5
	c-5.8-0.8-15.7-1.4-22-1.3C392.7,212.2,383.2,212.8,378,213.5 M247.1,560.6c-6.3,3.6-15.4,9.2-20.1,12.4
	c-4.8,3.2-13.1,9.4-18.6,13.7c-5.4,4.3-13.2,11-17.3,14.8c-4.1,3.8-11.2,11.2-15.9,16.4c-4.6,5.2-11.8,14-15.9,19.5
	c-4.1,5.5-10.6,15.3-14.4,21.8c-3.8,6.5-9.1,16.4-11.8,22c-2.6,5.6-6.2,14.1-7.9,18.8s-4.2,12.4-5.7,17.2c-1.4,4.8-3.7,14.2-5,21
	s-2.9,17.5-3.4,23.8c-0.6,6.3-1.1,17.5-1.1,24.8l0,13.2h290h290l0-13.2c0-7.3-0.5-18.2-1-24.2s-1.9-16-3-22s-3.2-15-4.5-20
	c-1.4-5-4.1-13.5-6.1-19c-2-5.5-5.8-14.6-8.4-20.3c-2.6-5.6-7.9-15.5-11.8-22c-3.8-6.5-10.3-16.2-14.4-21.8
	c-4.1-5.5-11.3-14.3-15.9-19.5c-4.6-5.2-11.8-12.6-15.9-16.4c-4.1-3.8-11.9-10.5-17.3-14.8c-5.4-4.3-13.8-10.5-18.5-13.7
	c-4.7-3.2-13-8.3-18.4-11.4c-5.4-3.1-10-5.6-10.4-5.6c-0.3,0-2.7,1.8-5.3,3.9c-2.6,2.2-9.2,6.9-14.6,10.6c-5.5,3.7-15.8,9.5-22.9,13
	c-7.1,3.5-17.7,8-23.4,9.9c-5.7,2-14.7,4.7-20,6c-5.3,1.3-14.5,3.2-20.6,4.2c-8.4,1.4-16.5,1.8-34.5,1.8c-18,0-26.1-0.4-34.5-1.8
	c-6-1-14.6-2.7-19-3.8c-4.4-1.1-10.7-2.8-14-3.8c-3.3-1-10.2-3.4-15.3-5.4c-5.1-2-13.8-5.9-19.3-8.7c-5.5-2.8-14.3-8-19.6-11.6
	c-5.3-3.5-12.3-8.7-15.5-11.4c-3.3-2.7-6.2-5-6.6-4.9C258.8,554,253.4,557,247.1,560.6"/>
</svg>
