<?xml version="1.0" standalone="no"?>
<!DOCTYPE svg PUBLIC "-//W3C//DTD SVG 20010904//EN"
 "http://www.w3.org/TR/2001/REC-SVG-20010904/DTD/svg10.dtd">
<svg version="1.0" xmlns="http://www.w3.org/2000/svg"
 width="700.000000pt" height="700.000000pt" viewBox="0 0 700.000000 700.000000"
 preserveAspectRatio="xMidYMid meet">
<metadata>
Created by potrace 1.14, written by Peter Selinger 2001-2017
</metadata>
<g transform="translate(0.000000,700.000000) scale(0.100000,-0.100000)"
fill="#000000" stroke="none">
<path d="M0 3500 l0 -3500 3500 0 3500 0 0 3500 0 3500 -3500 0 -3500 0 0
-3500z m4314 1598 c90 -48 195 -156 240 -248 39 -81 66 -186 66 -262 l0 -48
-995 0 c-871 0 -995 2 -995 15 0 28 51 150 90 217 77 129 196 237 347 315 l84
43 551 0 550 0 62 -32z m1733 22 c274 -10 389 -26 433 -59 14 -10 38 -42 53
-72 26 -48 28 -62 25 -124 -6 -83 -30 -137 -93 -204 -96 -103 -127 -107 -816
-117 l-486 -6 -6 163 c-5 165 -21 269 -57 373 l-19 56 352 0 c194 0 470 -5
614 -10z m-3697 -42 c-110 -146 -203 -317 -250 -460 l-23 -68 -236 0 c-243 0
-429 11 -519 31 -123 26 -190 185 -133 313 41 95 109 157 221 203 54 22 60 23
513 23 l459 0 -32 -42z m3722 -778 c106 -10 144 -25 196 -74 57 -53 77 -101
76 -186 0 -61 -6 -89 -32 -150 -167 -395 -1046 -1641 -1544 -2190 -186 -204
-316 -280 -443 -256 -53 10 -120 75 -145 142 -64 172 23 371 358 823 55 74
107 146 115 161 l16 27 -367 6 c-202 4 -1060 7 -1907 7 -849 0 -1597 5 -1667
10 -143 10 -169 20 -221 81 -65 76 -85 184 -47 258 39 78 171 169 277 192 31
7 687 14 1873 20 1004 5 1953 12 2109 15 l284 6 44 41 c76 70 373 434 373 458
0 12 -690 19 -1950 20 -707 1 -1496 5 -1753 9 l-468 7 -57 29 c-41 21 -64 41
-84 74 -32 52 -50 148 -37 195 11 39 129 179 167 198 75 38 233 55 597 63 773
18 4081 29 4237 14z"/>
</g>
</svg>
